<?xml version="1.0" encoding="UTF-8" standalone="no"?>
<svg
   width="1547.89pt"
   height="170pt"
   viewBox="0 0 1547.89 170"
   version="1.2"
   id="svg26"
   sodipodi:docname="logo_imperial_white.svg"
   inkscape:version="1.1.2 (0a00cf5339, 2022-02-04)"
   xmlns:inkscape="http://www.inkscape.org/namespaces/inkscape"
   xmlns:sodipodi="http://sodipodi.sourceforge.net/DTD/sodipodi-0.dtd"
   xmlns="http://www.w3.org/2000/svg"
   xmlns:svg="http://www.w3.org/2000/svg">
  <sodipodi:namedview
     id="namedview28"
     pagecolor="#ffffff"
     bordercolor="#666666"
     borderopacity="1.0"
     inkscape:pageshadow="2"
     inkscape:pageopacity="0.0"
     inkscape:pagecheckerboard="true"
     inkscape:document-units="pt"
     showgrid="false"
     inkscape:zoom="0.71225991"
     inkscape:cx="1031.2247"
     inkscape:cy="113.02054"
     inkscape:window-width="1920"
     inkscape:window-height="1136"
     inkscape:window-x="0"
     inkscape:window-y="27"
     inkscape:window-maximized="1"
     inkscape:current-layer="svg26" />
  <defs
     id="defs5">
    <clipPath
       id="clip1">
      <path
         d="M 1437 0 L 1547.890625 0 L 1547.890625 170 L 1437 170 Z M 1437 0 "
         id="path2" />
    </clipPath>
  </defs>
  <g
     id="surface4796"
     style="fill:#ffffff">
    <path
       style="stroke:none;fill-rule:nonzero;fill:#ffffff;fill-opacity:1"
       d="M 641.917969 0 L 641.917969 170 L 752.414062 170 L 752.414062 140.25 L 674.21875 140.25 L 674.21875 97.75 L 745.617188 97.75 L 745.617188 68.851562 L 674.21875 68.851562 L 674.21875 29.75 L 752.414062 29.75 L 752.414062 0 L 641.917969 0 "
       id="path7" />
    <path
       style="stroke:none;fill-rule:nonzero;fill:#ffffff;fill-opacity:1"
       d="M 509.34375 112.199219 L 483.84375 112.199219 L 483.84375 170 L 451.546875 170 L 451.546875 0 L 509.34375 0 C 545.597656 0 573.945312 16.417969 573.945312 56.101562 C 573.945312 95.199219 545.382812 112.199219 509.34375 112.199219 M 507.644531 27.453125 L 483.84375 27.453125 L 483.84375 84.746094 L 507.644531 84.746094 C 526.261719 84.746094 539.945312 75.734375 539.945312 56.101562 C 539.945312 35.699219 526.261719 27.453125 507.644531 27.453125 "
       id="path9" />
    <path
       style="stroke:none;fill-rule:nonzero;fill:#ffffff;fill-opacity:1"
       d="M 1032.929688 0 L 1032.929688 29.75 L 1072.878906 29.75 L 1072.878906 140.25 L 1032.929688 140.25 L 1032.929688 170 L 1145.128906 170 L 1145.128906 140.25 L 1105.179688 140.25 L 1105.179688 29.75 L 1145.128906 29.75 L 1145.128906 0 L 1032.929688 0 "
       id="path11" />
    <path
       style="stroke:none;fill-rule:nonzero;fill:#ffffff;fill-opacity:1"
       d="M 958.566406 52.699219 C 958.566406 13.015625 931.367188 0 895.664062 0 L 832.765625 0 L 832.765625 170 L 865.066406 170 L 865.066406 107.101562 L 892.265625 107.101562 C 893.753906 107.101562 895.238281 107.074219 896.703125 107.019531 L 929.613281 170 L 965.398438 170 L 928.886719 100.28125 C 946.65625 92.386719 958.566406 77.226562 958.566406 52.699219 M 924.566406 52.699219 C 924.566406 73.183594 912.664062 79.644531 892.265625 79.644531 L 865.066406 79.644531 L 865.066406 27.453125 L 892.265625 27.453125 C 914.398438 27.453125 924.566406 35.699219 924.566406 52.699219 "
       id="path13" />
    <path
       style="stroke:none;fill-rule:nonzero;fill:#ffffff;fill-opacity:1"
       d="M 1265.589844 0 L 1209.488281 170 L 1243.488281 170 L 1255.078125 132.601562 L 1318.601562 132.601562 L 1330.191406 170 L 1364.191406 170 L 1308.089844 0 Z M 1286.839844 30.160156 L 1310.078125 105.144531 L 1263.589844 105.144531 Z M 1286.839844 30.160156 "
       id="path15" />
    <g
       clip-path="url(#clip1)"
       clip-rule="nonzero"
       id="g19"
       style="fill:#ffffff">
      <path
         style="stroke:none;fill-rule:nonzero;fill:#ffffff;fill-opacity:1"
         d="M 1437.109375 0 L 1437.109375 170 L 1547.890625 170 L 1547.890625 140.25 L 1469.410156 140.25 L 1469.410156 0 L 1437.109375 0 "
         id="path17" />
    </g>
    <path
       style="stroke:none;fill-rule:nonzero;fill:#ffffff;fill-opacity:1"
       d="M 323.472656 0 L 282.671875 99.960938 L 241.871094 0 L 195.972656 0 L 195.972656 170 L 226.570312 170 L 226.570312 42.898438 L 265.671875 132.601562 L 299.671875 132.601562 L 338.769531 42.898438 L 338.769531 170 L 369.371094 170 L 369.371094 0 L 323.472656 0 "
       id="path21" />
    <path
       style="stroke:none;fill-rule:nonzero;fill:#ffffff;fill-opacity:1"
       d="M 0 0 L 0 29.75 L 39.949219 29.75 L 39.949219 140.25 L 0 140.25 L 0 170 L 112.199219 170 L 112.199219 140.25 L 72.25 140.25 L 72.25 29.75 L 112.199219 29.75 L 112.199219 0 L 0 0 "
       id="path23" />
  </g>
</svg>
